<svg width="48" height="48" viewBox="0 0 48 48" fill="none" xmlns="http://www.w3.org/2000/svg">
  <rect width="48" height="48" rx="9" fill="#1E88E5"/>
  <path d="M24 6C24 6 15 12 15 27V36L19.5 31.5V27C19.5 16.5 24 12 24 12V6Z" fill="white"/>
  <path d="M24 6C24 6 33 12 33 27V36L28.5 31.5V27C28.5 16.5 24 12 24 12V6Z" fill="#FFC107"/>
  <path d="M24 12C24 12 19.5 16.5 19.5 27V31.5L24 36L28.5 31.5V27C28.5 16.5 24 12 24 12Z" fill="#F44336"/>
  <path d="M19.5 36L15 40.5H24H33L28.5 36H19.5Z" fill="#E64A19"/>
  <path d="M21.75 39H26.25L24 45L21.75 39Z" fill="#FF9800"/>
  <circle cx="24" cy="21" r="3" fill="white" fill-opacity="0.5"/>
</svg>