<svg width="128" height="128" viewBox="0 0 128 128" fill="none" xmlns="http://www.w3.org/2000/svg">
  <rect width="128" height="128" rx="24" fill="#1E88E5"/>
  <path d="M64 16C64 16 40 32 40 72V96L52 84V72C52 44 64 32 64 32V16Z" fill="white"/>
  <path d="M64 16C64 16 88 32 88 72V96L76 84V72C76 44 64 32 64 32V16Z" fill="#FFC107"/>
  <path d="M64 32C64 32 52 44 52 72V84L64 96L76 84V72C76 44 64 32 64 32Z" fill="#F44336"/>
  <path d="M52 96L40 108H64H88L76 96H52Z" fill="#E64A19"/>
  <path d="M58 104H70L64 120L58 104Z" fill="#FF9800"/>
  <circle cx="64" cy="56" r="8" fill="white" fill-opacity="0.5"/>
</svg>