<svg width="16" height="16" viewBox="0 0 16 16" fill="none" xmlns="http://www.w3.org/2000/svg">
  <rect width="16" height="16" rx="3" fill="#1E88E5"/>
  <path d="M8 2C8 2 5 4 5 9V12L6.5 10.5V9C6.5 5.5 8 4 8 4V2Z" fill="white"/>
  <path d="M8 2C8 2 11 4 11 9V12L9.5 10.5V9C9.5 5.5 8 4 8 4V2Z" fill="#FFC107"/>
  <path d="M8 4C8 4 6.5 5.5 6.5 9V10.5L8 12L9.5 10.5V9C9.5 5.5 8 4 8 4Z" fill="#F44336"/>
  <path d="M6.5 12L5 13.5H8H11L9.5 12H6.5Z" fill="#E64A19"/>
  <path d="M7.25 13H8.75L8 15L7.25 13Z" fill="#FF9800"/>
</svg>